<svg xmlns="http://www.w3.org/2000/svg" version="1.1" xmlns:xlink="http://www.w3.org/1999/xlink" xmlns:svgjs="http://svgjs.com/svgjs" width="1440" height="560" preserveAspectRatio="none" viewBox="0 0 1440 560"><g mask="url(&quot;#SvgjsMask1005&quot;)" fill="none"><rect width="1440" height="560" x="0" y="0" fill="rgba(0, 59, 125, 1)"></rect><path d="M890.0418281737825 374.64987639172773L795.0853797703957 412.9095445906984 864.6332411125564 469.2282922484404z" fill="rgba(28, 83, 142, 0.4)" class="triangle-float3"></path><path d="M271.095,212.443C314.152,216.282,353.671,188.481,375.392,151.106C397.223,113.541,401.644,65.571,377.407,29.511C355.188,-3.547,310.859,-6.385,271.095,-4.067C236.246,-2.036,201.086,10.171,184.279,40.767C167.972,70.453,179.418,104.77,194.703,134.995C212.242,169.678,232.384,208.991,271.095,212.443" fill="rgba(28, 83, 142, 0.4)" class="triangle-float3"></path><path d="M842.3466641349963 214.49437837841123L831.4637243299366 338.8869495580482 955.8562955095734 349.76988936310795 966.7392353146332 225.37731818347103z" fill="rgba(28, 83, 142, 0.4)" class="triangle-float1"></path><path d="M817.690124435161 294.5388967241886L839.673032037522 191.11744772423782 673.5494047364153 209.85381082067164z" fill="rgba(28, 83, 142, 0.4)" class="triangle-float2"></path><path d="M159.18622895170037 339.3931010377282L74.06782151419496 470.46395442643734 290.25708234040957 424.5115084752336z" fill="rgba(28, 83, 142, 0.4)" class="triangle-float3"></path><path d="M659.7853410665172 596.2099627385724L711.5963068194948 498.7677082517949 614.1540523327174 446.9567424988173 562.3430865797397 544.3989969855947z" fill="rgba(28, 83, 142, 0.4)" class="triangle-float1"></path></g><defs><mask id="SvgjsMask1005"><rect width="1440" height="560" fill="#ffffff"></rect></mask><style>
            @keyframes float1 {
                0%{transform: translate(0, 0)}
                50%{transform: translate(-10px, 0)}
                100%{transform: translate(0, 0)}
            }

            .triangle-float1 {
                animation: float1 5s infinite;
            }

            @keyframes float2 {
                0%{transform: translate(0, 0)}
                50%{transform: translate(-5px, -5px)}
                100%{transform: translate(0, 0)}
            }

            .triangle-float2 {
                animation: float2 4s infinite;
            }

            @keyframes float3 {
                0%{transform: translate(0, 0)}
                50%{transform: translate(0, -10px)}
                100%{transform: translate(0, 0)}
            }

            .triangle-float3 {
                animation: float3 6s infinite;
            }
        </style></defs></svg>