<svg xmlns="http://www.w3.org/2000/svg" version="1.1" xmlns:xlink="http://www.w3.org/1999/xlink" xmlns:svgjs="http://svgjs.com/svgjs" width="1440" height="560" preserveAspectRatio="none" viewBox="0 0 1440 560"><g mask="url(&quot;#SvgjsMask1002&quot;)" fill="none"><rect width="1440" height="560" x="0" y="0" fill="rgba(0, 59, 125, 1)"></rect><path d="M-95.61 368.53L-95.61 368.53" stroke="#132e65" stroke-width="1.5"></path><path d="M-95.61 368.53L-47.25 510.54" stroke="#132e65" stroke-width="1.5"></path><path d="M-95.61 368.53L101.2 344.21" stroke="#132e65" stroke-width="1.5"></path><path d="M-95.61 368.53L110.79 525.16" stroke="#132e65" stroke-width="1.5"></path><path d="M-47.25 510.54L-47.25 510.54" stroke="#132e65" stroke-width="1.5"></path><path d="M-47.25 510.54L110.79 525.16" stroke="#132e65" stroke-width="1.5"></path><path d="M-47.25 510.54L-60.18 706.78" stroke="#132e65" stroke-width="1.5"></path><path d="M-60.18 706.78L-60.18 706.78" stroke="#132e65" stroke-width="1.5"></path><path d="M-60.18 706.78L92.63 682.09" stroke="#132e65" stroke-width="1.5"></path><path d="M-60.18 706.78L110.79 525.16" stroke="#132e65" stroke-width="1.5"></path><path d="M101.2 344.21L101.2 344.21" stroke="#132e65" stroke-width="1.5"></path><path d="M101.2 344.21L223.75 373.16" stroke="#132e65" stroke-width="1.5"></path><path d="M101.2 344.21L110.79 525.16" stroke="#132e65" stroke-width="1.5"></path><path d="M101.2 344.21L-47.25 510.54" stroke="#132e65" stroke-width="1.5"></path><path d="M101.2 344.21L247.5 537.1" stroke="#132e65" stroke-width="1.5"></path><path d="M110.79 525.16L110.79 525.16" stroke="#132e65" stroke-width="1.5"></path><path d="M110.79 525.16L247.5 537.1" stroke="#132e65" stroke-width="1.5"></path><path d="M110.79 525.16L92.63 682.09" stroke="#132e65" stroke-width="1.5"></path><path d="M92.63 682.09L92.63 682.09" stroke="#132e65" stroke-width="1.5"></path><path d="M92.63 682.09L247.5 537.1" stroke="#132e65" stroke-width="1.5"></path><path d="M92.63 682.09L-47.25 510.54" stroke="#132e65" stroke-width="1.5"></path><path d="M92.63 682.09L359.72 695.01" stroke="#132e65" stroke-width="1.5"></path><path d="M223.75 373.16L223.75 373.16" stroke="#132e65" stroke-width="1.5"></path><path d="M223.75 373.16L381.03 344.73" stroke="#132e65" stroke-width="1.5"></path><path d="M223.75 373.16L247.5 537.1" stroke="#132e65" stroke-width="1.5"></path><path d="M223.75 373.16L110.79 525.16" stroke="#132e65" stroke-width="1.5"></path><path d="M223.75 373.16L344.82 555.84" stroke="#132e65" stroke-width="1.5"></path><path d="M247.5 537.1L247.5 537.1" stroke="#132e65" stroke-width="1.5"></path><path d="M247.5 537.1L344.82 555.84" stroke="#132e65" stroke-width="1.5"></path><path d="M247.5 537.1L359.72 695.01" stroke="#132e65" stroke-width="1.5"></path><path d="M381.03 344.73L381.03 344.73" stroke="#132e65" stroke-width="1.5"></path><path d="M381.03 344.73L519.54 397.05" stroke="#132e65" stroke-width="1.5"></path><path d="M344.82 555.84L344.82 555.84" stroke="#132e65" stroke-width="1.5"></path><path d="M344.82 555.84L359.72 695.01" stroke="#132e65" stroke-width="1.5"></path><path d="M344.82 555.84L512.04 521.27" stroke="#132e65" stroke-width="1.5"></path><path d="M344.82 555.84L519.23 670.25" stroke="#132e65" stroke-width="1.5"></path><path d="M344.82 555.84L381.03 344.73" stroke="#132e65" stroke-width="1.5"></path><path d="M359.72 695.01L359.72 695.01" stroke="#132e65" stroke-width="1.5"></path><path d="M359.72 695.01L519.23 670.25" stroke="#132e65" stroke-width="1.5"></path><path d="M519.54 397.05L519.54 397.05" stroke="#132e65" stroke-width="1.5"></path><path d="M519.54 397.05L512.04 521.27" stroke="#132e65" stroke-width="1.5"></path><path d="M519.54 397.05L673.71 352.96" stroke="#132e65" stroke-width="1.5"></path><path d="M512.04 521.27L512.04 521.27" stroke="#132e65" stroke-width="1.5"></path><path d="M512.04 521.27L519.23 670.25" stroke="#132e65" stroke-width="1.5"></path><path d="M512.04 521.27L668.26 543.85" stroke="#132e65" stroke-width="1.5"></path><path d="M519.23 670.25L519.23 670.25" stroke="#132e65" stroke-width="1.5"></path><path d="M519.23 670.25L686.1 708.06" stroke="#132e65" stroke-width="1.5"></path><path d="M519.23 670.25L668.26 543.85" stroke="#132e65" stroke-width="1.5"></path><path d="M519.23 670.25L519.54 397.05" stroke="#132e65" stroke-width="1.5"></path><path d="M673.71 352.96L673.71 352.96" stroke="#132e65" stroke-width="1.5"></path><path d="M673.71 352.96L793.46 248.35" stroke="#132e65" stroke-width="1.5"></path><path d="M673.71 352.96L840.26 338.8" stroke="#132e65" stroke-width="1.5"></path><path d="M673.71 352.96L668.26 543.85" stroke="#132e65" stroke-width="1.5"></path><path d="M673.71 352.96L512.04 521.27" stroke="#132e65" stroke-width="1.5"></path><path d="M668.26 543.85L668.26 543.85" stroke="#132e65" stroke-width="1.5"></path><path d="M668.26 543.85L686.1 708.06" stroke="#132e65" stroke-width="1.5"></path><path d="M668.26 543.85L835.49 553.48" stroke="#132e65" stroke-width="1.5"></path><path d="M686.1 708.06L686.1 708.06" stroke="#132e65" stroke-width="1.5"></path><path d="M686.1 708.06L853.15 681.12" stroke="#132e65" stroke-width="1.5"></path><path d="M686.1 708.06L835.49 553.48" stroke="#132e65" stroke-width="1.5"></path><path d="M793.46 248.35L793.46 248.35" stroke="#132e65" stroke-width="1.5"></path><path d="M793.46 248.35L840.26 338.8" stroke="#132e65" stroke-width="1.5"></path><path d="M793.46 248.35L946.55 209.36" stroke="#132e65" stroke-width="1.5"></path><path d="M840.26 338.8L840.26 338.8" stroke="#132e65" stroke-width="1.5"></path><path d="M840.26 338.8L997.95 339.16" stroke="#132e65" stroke-width="1.5"></path><path d="M840.26 338.8L946.55 209.36" stroke="#132e65" stroke-width="1.5"></path><path d="M835.49 553.48L835.49 553.48" stroke="#132e65" stroke-width="1.5"></path><path d="M835.49 553.48L957.45 545.84" stroke="#132e65" stroke-width="1.5"></path><path d="M835.49 553.48L853.15 681.12" stroke="#132e65" stroke-width="1.5"></path><path d="M835.49 553.48L840.26 338.8" stroke="#132e65" stroke-width="1.5"></path><path d="M853.15 681.12L853.15 681.12" stroke="#132e65" stroke-width="1.5"></path><path d="M853.15 681.12L1012.3 691.59" stroke="#132e65" stroke-width="1.5"></path><path d="M853.15 681.12L957.45 545.84" stroke="#132e65" stroke-width="1.5"></path><path d="M853.15 681.12L668.26 543.85" stroke="#132e65" stroke-width="1.5"></path><path d="M853.15 681.12L1106.25 643.32" stroke="#132e65" stroke-width="1.5"></path><path d="M967.21 -89.64L967.21 -89.64" stroke="#132e65" stroke-width="1.5"></path><path d="M967.21 -89.64L1130.13 -92.24" stroke="#132e65" stroke-width="1.5"></path><path d="M967.21 -89.64L958.16 108.71" stroke="#132e65" stroke-width="1.5"></path><path d="M967.21 -89.64L1127.85 99.99" stroke="#132e65" stroke-width="1.5"></path><path d="M958.16 108.71L958.16 108.71" stroke="#132e65" stroke-width="1.5"></path><path d="M958.16 108.71L946.55 209.36" stroke="#132e65" stroke-width="1.5"></path><path d="M946.55 209.36L946.55 209.36" stroke="#132e65" stroke-width="1.5"></path><path d="M946.55 209.36L997.95 339.16" stroke="#132e65" stroke-width="1.5"></path><path d="M997.95 339.16L997.95 339.16" stroke="#132e65" stroke-width="1.5"></path><path d="M997.95 339.16L1109.99 217.87" stroke="#132e65" stroke-width="1.5"></path><path d="M997.95 339.16L1158.18 405.6" stroke="#132e65" stroke-width="1.5"></path><path d="M997.95 339.16L957.45 545.84" stroke="#132e65" stroke-width="1.5"></path><path d="M957.45 545.84L957.45 545.84" stroke="#132e65" stroke-width="1.5"></path><path d="M957.45 545.84L1106.77 521.45" stroke="#132e65" stroke-width="1.5"></path><path d="M957.45 545.84L1012.3 691.59" stroke="#132e65" stroke-width="1.5"></path><path d="M957.45 545.84L1106.25 643.32" stroke="#132e65" stroke-width="1.5"></path><path d="M1012.3 691.59L1012.3 691.59" stroke="#132e65" stroke-width="1.5"></path><path d="M1012.3 691.59L1106.25 643.32" stroke="#132e65" stroke-width="1.5"></path><path d="M1012.3 691.59L1106.77 521.45" stroke="#132e65" stroke-width="1.5"></path><path d="M1012.3 691.59L835.49 553.48" stroke="#132e65" stroke-width="1.5"></path><path d="M1130.13 -92.24L1130.13 -92.24" stroke="#132e65" stroke-width="1.5"></path><path d="M1130.13 -92.24L1292.25 -56.75" stroke="#132e65" stroke-width="1.5"></path><path d="M1130.13 -92.24L1127.85 99.99" stroke="#132e65" stroke-width="1.5"></path><path d="M1130.13 -92.24L1308.11 93.44" stroke="#132e65" stroke-width="1.5"></path><path d="M1130.13 -92.24L958.16 108.71" stroke="#132e65" stroke-width="1.5"></path><path d="M1127.85 99.99L1127.85 99.99" stroke="#132e65" stroke-width="1.5"></path><path d="M1127.85 99.99L1109.99 217.87" stroke="#132e65" stroke-width="1.5"></path><path d="M1127.85 99.99L958.16 108.71" stroke="#132e65" stroke-width="1.5"></path><path d="M1127.85 99.99L1308.11 93.44" stroke="#132e65" stroke-width="1.5"></path><path d="M1109.99 217.87L1109.99 217.87" stroke="#132e65" stroke-width="1.5"></path><path d="M1109.99 217.87L1242.15 258.57" stroke="#132e65" stroke-width="1.5"></path><path d="M1109.99 217.87L946.55 209.36" stroke="#132e65" stroke-width="1.5"></path><path d="M1158.18 405.6L1158.18 405.6" stroke="#132e65" stroke-width="1.5"></path><path d="M1158.18 405.6L1106.77 521.45" stroke="#132e65" stroke-width="1.5"></path><path d="M1158.18 405.6L1303.03 380.77" stroke="#132e65" stroke-width="1.5"></path><path d="M1106.77 521.45L1106.77 521.45" stroke="#132e65" stroke-width="1.5"></path><path d="M1106.77 521.45L1106.25 643.32" stroke="#132e65" stroke-width="1.5"></path><path d="M1106.77 521.45L1254.43 545.21" stroke="#132e65" stroke-width="1.5"></path><path d="M1106.25 643.32L1106.25 643.32" stroke="#132e65" stroke-width="1.5"></path><path d="M1106.25 643.32L1254.43 545.21" stroke="#132e65" stroke-width="1.5"></path><path d="M1292.25 -56.75L1292.25 -56.75" stroke="#132e65" stroke-width="1.5"></path><path d="M1292.25 -56.75L1434.39 -58.14" stroke="#132e65" stroke-width="1.5"></path><path d="M1292.25 -56.75L1308.11 93.44" stroke="#132e65" stroke-width="1.5"></path><path d="M1308.11 93.44L1308.11 93.44" stroke="#132e65" stroke-width="1.5"></path><path d="M1308.11 93.44L1422.31 89.93" stroke="#132e65" stroke-width="1.5"></path><path d="M1308.11 93.44L1242.15 258.57" stroke="#132e65" stroke-width="1.5"></path><path d="M1242.15 258.57L1242.15 258.57" stroke="#132e65" stroke-width="1.5"></path><path d="M1242.15 258.57L1303.03 380.77" stroke="#132e65" stroke-width="1.5"></path><path d="M1303.03 380.77L1303.03 380.77" stroke="#132e65" stroke-width="1.5"></path><path d="M1303.03 380.77L1432.55 389.62" stroke="#132e65" stroke-width="1.5"></path><path d="M1303.03 380.77L1411.72 253.28" stroke="#132e65" stroke-width="1.5"></path><path d="M1303.03 380.77L1254.43 545.21" stroke="#132e65" stroke-width="1.5"></path><path d="M1303.03 380.77L1458.21 489.81" stroke="#132e65" stroke-width="1.5"></path><path d="M1254.43 545.21L1254.43 545.21" stroke="#132e65" stroke-width="1.5"></path><path d="M1254.43 545.21L1307.38 642.02" stroke="#132e65" stroke-width="1.5"></path><path d="M1254.43 545.21L1158.18 405.6" stroke="#132e65" stroke-width="1.5"></path><path d="M1307.38 642.02L1307.38 642.02" stroke="#132e65" stroke-width="1.5"></path><path d="M1307.38 642.02L1106.25 643.32" stroke="#132e65" stroke-width="1.5"></path><path d="M1307.38 642.02L1458.21 489.81" stroke="#132e65" stroke-width="1.5"></path><path d="M1307.38 642.02L1106.77 521.45" stroke="#132e65" stroke-width="1.5"></path><path d="M1307.38 642.02L1537.54 695.82" stroke="#132e65" stroke-width="1.5"></path><path d="M1307.38 642.02L1303.03 380.77" stroke="#132e65" stroke-width="1.5"></path><path d="M1434.39 -58.14L1434.39 -58.14" stroke="#132e65" stroke-width="1.5"></path><path d="M1434.39 -58.14L1422.31 89.93" stroke="#132e65" stroke-width="1.5"></path><path d="M1434.39 -58.14L1584.64 -95.09" stroke="#132e65" stroke-width="1.5"></path><path d="M1434.39 -58.14L1308.11 93.44" stroke="#132e65" stroke-width="1.5"></path><path d="M1434.39 -58.14L1585.08 91.96" stroke="#132e65" stroke-width="1.5"></path><path d="M1434.39 -58.14L1593.32 194.48" stroke="#132e65" stroke-width="1.5"></path><path d="M1422.31 89.93L1422.31 89.93" stroke="#132e65" stroke-width="1.5"></path><path d="M1422.31 89.93L1585.08 91.96" stroke="#132e65" stroke-width="1.5"></path><path d="M1422.31 89.93L1411.72 253.28" stroke="#132e65" stroke-width="1.5"></path><path d="M1411.72 253.28L1411.72 253.28" stroke="#132e65" stroke-width="1.5"></path><path d="M1411.72 253.28L1432.55 389.62" stroke="#132e65" stroke-width="1.5"></path><path d="M1432.55 389.62L1432.55 389.62" stroke="#132e65" stroke-width="1.5"></path><path d="M1432.55 389.62L1458.21 489.81" stroke="#132e65" stroke-width="1.5"></path><path d="M1432.55 389.62L1559.22 366.75" stroke="#132e65" stroke-width="1.5"></path><path d="M1458.21 489.81L1458.21 489.81" stroke="#132e65" stroke-width="1.5"></path><path d="M1458.21 489.81L1548.79 500.76" stroke="#132e65" stroke-width="1.5"></path><path d="M1458.21 489.81L1559.22 366.75" stroke="#132e65" stroke-width="1.5"></path><path d="M1458.21 489.81L1254.43 545.21" stroke="#132e65" stroke-width="1.5"></path><path d="M1584.64 -95.09L1584.64 -95.09" stroke="#132e65" stroke-width="1.5"></path><path d="M1584.64 -95.09L1585.08 91.96" stroke="#132e65" stroke-width="1.5"></path><path d="M1584.64 -95.09L1422.31 89.93" stroke="#132e65" stroke-width="1.5"></path><path d="M1584.64 -95.09L1593.32 194.48" stroke="#132e65" stroke-width="1.5"></path><path d="M1584.64 -95.09L1292.25 -56.75" stroke="#132e65" stroke-width="1.5"></path><path d="M1585.08 91.96L1585.08 91.96" stroke="#132e65" stroke-width="1.5"></path><path d="M1585.08 91.96L1593.32 194.48" stroke="#132e65" stroke-width="1.5"></path><path d="M1585.08 91.96L1411.72 253.28" stroke="#132e65" stroke-width="1.5"></path><path d="M1585.08 91.96L1559.22 366.75" stroke="#132e65" stroke-width="1.5"></path><path d="M1593.32 194.48L1593.32 194.48" stroke="#132e65" stroke-width="1.5"></path><path d="M1593.32 194.48L1559.22 366.75" stroke="#132e65" stroke-width="1.5"></path><path d="M1593.32 194.48L1411.72 253.28" stroke="#132e65" stroke-width="1.5"></path><path d="M1593.32 194.48L1422.31 89.93" stroke="#132e65" stroke-width="1.5"></path><path d="M1593.32 194.48L1432.55 389.62" stroke="#132e65" stroke-width="1.5"></path><path d="M1559.22 366.75L1559.22 366.75" stroke="#132e65" stroke-width="1.5"></path><path d="M1559.22 366.75L1548.79 500.76" stroke="#132e65" stroke-width="1.5"></path><path d="M1548.79 500.76L1548.79 500.76" stroke="#132e65" stroke-width="1.5"></path><path d="M1548.79 500.76L1432.55 389.62" stroke="#132e65" stroke-width="1.5"></path><path d="M1537.54 695.82L1537.54 695.82" stroke="#132e65" stroke-width="1.5"></path><path d="M1537.54 695.82L1548.79 500.76" stroke="#132e65" stroke-width="1.5"></path><path d="M1537.54 695.82L1458.21 489.81" stroke="#132e65" stroke-width="1.5"></path><path d="M1537.54 695.82L1254.43 545.21" stroke="#132e65" stroke-width="1.5"></path><circle r="5" cx="-95.61" cy="368.53" fill="#132e65"></circle><circle r="5" cx="-47.25" cy="510.54" fill="#132e65"></circle><circle r="5" cx="-60.18" cy="706.78" fill="#132e65"></circle><circle r="5" cx="101.2" cy="344.21" fill="#132e65"></circle><circle r="5" cx="110.79" cy="525.16" fill="#132e65"></circle><circle r="5" cx="92.63" cy="682.09" fill="#132e65"></circle><circle r="5" cx="223.75" cy="373.16" fill="#132e65"></circle><circle r="5" cx="247.5" cy="537.1" fill="#132e65"></circle><circle r="5" cx="381.03" cy="344.73" fill="#132e65"></circle><circle r="5" cx="344.82" cy="555.84" fill="#132e65"></circle><circle r="5" cx="359.72" cy="695.01" fill="#132e65"></circle><circle r="5" cx="519.54" cy="397.05" fill="#132e65"></circle><circle r="5" cx="512.04" cy="521.27" fill="#132e65"></circle><circle r="5" cx="519.23" cy="670.25" fill="#132e65"></circle><circle r="5" cx="673.71" cy="352.96" fill="#132e65"></circle><circle r="5" cx="668.26" cy="543.85" fill="#132e65"></circle><circle r="5" cx="686.1" cy="708.06" fill="#132e65"></circle><circle r="5" cx="793.46" cy="248.35" fill="#132e65"></circle><circle r="5" cx="840.26" cy="338.8" fill="#132e65"></circle><circle r="5" cx="835.49" cy="553.48" fill="#132e65"></circle><circle r="5" cx="853.15" cy="681.12" fill="#132e65"></circle><circle r="5" cx="967.21" cy="-89.64" fill="#132e65"></circle><circle r="5" cx="958.16" cy="108.71" fill="#132e65"></circle><circle r="5" cx="946.55" cy="209.36" fill="#132e65"></circle><circle r="5" cx="997.95" cy="339.16" fill="#132e65"></circle><circle r="5" cx="957.45" cy="545.84" fill="#132e65"></circle><circle r="5" cx="1012.3" cy="691.59" fill="#132e65"></circle><circle r="5" cx="1130.13" cy="-92.24" fill="#132e65"></circle><circle r="5" cx="1127.85" cy="99.99" fill="#132e65"></circle><circle r="5" cx="1109.99" cy="217.87" fill="#132e65"></circle><circle r="5" cx="1158.18" cy="405.6" fill="#132e65"></circle><circle r="5" cx="1106.77" cy="521.45" fill="#132e65"></circle><circle r="5" cx="1106.25" cy="643.32" fill="#132e65"></circle><circle r="5" cx="1292.25" cy="-56.75" fill="#132e65"></circle><circle r="5" cx="1308.11" cy="93.44" fill="#132e65"></circle><circle r="5" cx="1242.15" cy="258.57" fill="#132e65"></circle><circle r="5" cx="1303.03" cy="380.77" fill="#132e65"></circle><circle r="5" cx="1254.43" cy="545.21" fill="#132e65"></circle><circle r="5" cx="1307.38" cy="642.02" fill="#132e65"></circle><circle r="5" cx="1434.39" cy="-58.14" fill="#132e65"></circle><circle r="5" cx="1422.31" cy="89.93" fill="#132e65"></circle><circle r="5" cx="1411.72" cy="253.28" fill="#132e65"></circle><circle r="5" cx="1432.55" cy="389.62" fill="#132e65"></circle><circle r="5" cx="1458.21" cy="489.81" fill="#132e65"></circle><circle r="5" cx="1584.64" cy="-95.09" fill="#132e65"></circle><circle r="5" cx="1585.08" cy="91.96" fill="#132e65"></circle><circle r="5" cx="1593.32" cy="194.48" fill="#132e65"></circle><circle r="5" cx="1559.22" cy="366.75" fill="#132e65"></circle><circle r="5" cx="1548.79" cy="500.76" fill="#132e65"></circle><circle r="5" cx="1537.54" cy="695.82" fill="#132e65"></circle><path d="M-104.79 536.82L-104.79 536.82" stroke="hsl(228.5, 77.2%, 51.5%)" stroke-width="1.5"></path><path d="M-104.79 536.82L-38.3 704.06" stroke="hsl(228.5, 77.2%, 51.5%)" stroke-width="1.5"></path><path d="M-104.79 536.82L52.7 707.09" stroke="hsl(228.5, 77.2%, 51.5%)" stroke-width="1.5"></path><path d="M-104.79 536.82L188.7 527.27" stroke="hsl(228.5, 77.2%, 51.5%)" stroke-width="1.5"></path><path d="M-104.79 536.82L227.93 674.91" stroke="hsl(228.5, 77.2%, 51.5%)" stroke-width="1.5"></path><path d="M381.62 546.64L381.62 546.64" stroke="hsl(228.5, 77.2%, 51.5%)" stroke-width="1.5"></path><path d="M381.62 546.64L377.81 697.24" stroke="hsl(228.5, 77.2%, 51.5%)" stroke-width="1.5"></path><path d="M381.62 546.64L548.49 495.77" stroke="hsl(228.5, 77.2%, 51.5%)" stroke-width="1.5"></path><path d="M381.62 546.64L188.7 527.27" stroke="hsl(228.5, 77.2%, 51.5%)" stroke-width="1.5"></path><path d="M551.28 407.95L551.28 407.95" stroke="hsl(228.5, 77.2%, 51.5%)" stroke-width="1.5"></path><path d="M551.28 407.95L548.49 495.77" stroke="hsl(228.5, 77.2%, 51.5%)" stroke-width="1.5"></path><path d="M551.28 407.95L712.31 508.43" stroke="hsl(228.5, 77.2%, 51.5%)" stroke-width="1.5"></path><path d="M551.28 407.95L381.62 546.64" stroke="hsl(228.5, 77.2%, 51.5%)" stroke-width="1.5"></path><path d="M551.28 407.95L556.22 648.95" stroke="hsl(228.5, 77.2%, 51.5%)" stroke-width="1.5"></path><path d="M551.28 407.95L679.49 641.83" stroke="hsl(228.5, 77.2%, 51.5%)" stroke-width="1.5"></path><path d="M551.28 407.95L827.62 348.24" stroke="hsl(228.5, 77.2%, 51.5%)" stroke-width="1.5"></path><path d="M994.15 338.09L994.15 338.09" stroke="hsl(228.5, 77.2%, 51.5%)" stroke-width="1.5"></path><path d="M994.15 338.09L960.62 260.31" stroke="hsl(228.5, 77.2%, 51.5%)" stroke-width="1.5"></path><path d="M994.15 338.09L1125.34 393.62" stroke="hsl(228.5, 77.2%, 51.5%)" stroke-width="1.5"></path><path d="M994.15 338.09L987.78 487.76" stroke="hsl(228.5, 77.2%, 51.5%)" stroke-width="1.5"></path><path d="M1238.22 246.47L1238.22 246.47" stroke="hsl(228.5, 77.2%, 51.5%)" stroke-width="1.5"></path><path d="M1238.22 246.47L1142.78 188.9" stroke="hsl(228.5, 77.2%, 51.5%)" stroke-width="1.5"></path><path d="M1238.22 246.47L1125.34 393.62" stroke="hsl(228.5, 77.2%, 51.5%)" stroke-width="1.5"></path><path d="M1238.22 246.47L1417.36 196.46" stroke="hsl(228.5, 77.2%, 51.5%)" stroke-width="1.5"></path><path d="M1266.07 525.72L1266.07 525.72" stroke="hsl(228.5, 77.2%, 51.5%)" stroke-width="1.5"></path><path d="M1266.07 525.72L1280.68 673.25" stroke="hsl(228.5, 77.2%, 51.5%)" stroke-width="1.5"></path><path d="M1266.07 525.72L1092.62 523.21" stroke="hsl(228.5, 77.2%, 51.5%)" stroke-width="1.5"></path><path d="M1266.07 525.72L1457.17 545.93" stroke="hsl(228.5, 77.2%, 51.5%)" stroke-width="1.5"></path><path d="M1552.02 534.29L1552.02 534.29" stroke="hsl(228.5, 77.2%, 51.5%)" stroke-width="1.5"></path><path d="M1552.02 534.29L1457.17 545.93" stroke="hsl(228.5, 77.2%, 51.5%)" stroke-width="1.5"></path><path d="M1552.02 534.29L1605.12 651.15" stroke="hsl(228.5, 77.2%, 51.5%)" stroke-width="1.5"></path><path d="M1552.02 534.29L1553.58 380.02" stroke="hsl(228.5, 77.2%, 51.5%)" stroke-width="1.5"></path><path d="M1552.02 534.29L1438.47 394.59" stroke="hsl(228.5, 77.2%, 51.5%)" stroke-width="1.5"></path><path d="M1552.02 534.29L1387.73 688.91" stroke="hsl(228.5, 77.2%, 51.5%)" stroke-width="1.5"></path><path d="M1552.02 534.29L1266.07 525.72" stroke="hsl(228.5, 77.2%, 51.5%)" stroke-width="1.5"></path><path d="M-38.3 704.06L-38.3 704.06" stroke="hsl(228.5, 77.2%, 51.5%)" stroke-width="1.5"></path><path d="M-38.3 704.06L52.7 707.09" stroke="hsl(228.5, 77.2%, 51.5%)" stroke-width="1.5"></path><path d="M-38.3 704.06L227.93 674.91" stroke="hsl(228.5, 77.2%, 51.5%)" stroke-width="1.5"></path><path d="M-38.3 704.06L188.7 527.27" stroke="hsl(228.5, 77.2%, 51.5%)" stroke-width="1.5"></path><path d="M-38.3 704.06L377.81 697.24" stroke="hsl(228.5, 77.2%, 51.5%)" stroke-width="1.5"></path><path d="M52.7 707.09L52.7 707.09" stroke="hsl(228.5, 77.2%, 51.5%)" stroke-width="1.5"></path><path d="M188.7 527.27L188.7 527.27" stroke="hsl(228.5, 77.2%, 51.5%)" stroke-width="1.5"></path><path d="M188.7 527.27L227.93 674.91" stroke="hsl(228.5, 77.2%, 51.5%)" stroke-width="1.5"></path><path d="M188.7 527.27L52.7 707.09" stroke="hsl(228.5, 77.2%, 51.5%)" stroke-width="1.5"></path><path d="M188.7 527.27L377.81 697.24" stroke="hsl(228.5, 77.2%, 51.5%)" stroke-width="1.5"></path><path d="M227.93 674.91L227.93 674.91" stroke="hsl(228.5, 77.2%, 51.5%)" stroke-width="1.5"></path><path d="M227.93 674.91L377.81 697.24" stroke="hsl(228.5, 77.2%, 51.5%)" stroke-width="1.5"></path><path d="M377.81 697.24L377.81 697.24" stroke="hsl(228.5, 77.2%, 51.5%)" stroke-width="1.5"></path><path d="M377.81 697.24L556.22 648.95" stroke="hsl(228.5, 77.2%, 51.5%)" stroke-width="1.5"></path><path d="M548.49 495.77L548.49 495.77" stroke="hsl(228.5, 77.2%, 51.5%)" stroke-width="1.5"></path><path d="M548.49 495.77L556.22 648.95" stroke="hsl(228.5, 77.2%, 51.5%)" stroke-width="1.5"></path><path d="M548.49 495.77L712.31 508.43" stroke="hsl(228.5, 77.2%, 51.5%)" stroke-width="1.5"></path><path d="M548.49 495.77L679.49 641.83" stroke="hsl(228.5, 77.2%, 51.5%)" stroke-width="1.5"></path><path d="M548.49 495.77L377.81 697.24" stroke="hsl(228.5, 77.2%, 51.5%)" stroke-width="1.5"></path><path d="M556.22 648.95L556.22 648.95" stroke="hsl(228.5, 77.2%, 51.5%)" stroke-width="1.5"></path><path d="M556.22 648.95L679.49 641.83" stroke="hsl(228.5, 77.2%, 51.5%)" stroke-width="1.5"></path><path d="M712.31 508.43L712.31 508.43" stroke="hsl(228.5, 77.2%, 51.5%)" stroke-width="1.5"></path><path d="M712.31 508.43L838.25 516.78" stroke="hsl(228.5, 77.2%, 51.5%)" stroke-width="1.5"></path><path d="M712.31 508.43L679.49 641.83" stroke="hsl(228.5, 77.2%, 51.5%)" stroke-width="1.5"></path><path d="M712.31 508.43L802.22 682" stroke="hsl(228.5, 77.2%, 51.5%)" stroke-width="1.5"></path><path d="M679.49 641.83L679.49 641.83" stroke="hsl(228.5, 77.2%, 51.5%)" stroke-width="1.5"></path><path d="M679.49 641.83L802.22 682" stroke="hsl(228.5, 77.2%, 51.5%)" stroke-width="1.5"></path><path d="M679.49 641.83L838.25 516.78" stroke="hsl(228.5, 77.2%, 51.5%)" stroke-width="1.5"></path><path d="M827.62 348.24L827.62 348.24" stroke="hsl(228.5, 77.2%, 51.5%)" stroke-width="1.5"></path><path d="M827.62 348.24L960.62 260.31" stroke="hsl(228.5, 77.2%, 51.5%)" stroke-width="1.5"></path><path d="M827.62 348.24L994.15 338.09" stroke="hsl(228.5, 77.2%, 51.5%)" stroke-width="1.5"></path><path d="M827.62 348.24L838.25 516.78" stroke="hsl(228.5, 77.2%, 51.5%)" stroke-width="1.5"></path><path d="M838.25 516.78L838.25 516.78" stroke="hsl(228.5, 77.2%, 51.5%)" stroke-width="1.5"></path><path d="M838.25 516.78L987.78 487.76" stroke="hsl(228.5, 77.2%, 51.5%)" stroke-width="1.5"></path><path d="M802.22 682L802.22 682" stroke="hsl(228.5, 77.2%, 51.5%)" stroke-width="1.5"></path><path d="M802.22 682L838.25 516.78" stroke="hsl(228.5, 77.2%, 51.5%)" stroke-width="1.5"></path><path d="M802.22 682L995.78 683.76" stroke="hsl(228.5, 77.2%, 51.5%)" stroke-width="1.5"></path><path d="M960.62 260.31L960.62 260.31" stroke="hsl(228.5, 77.2%, 51.5%)" stroke-width="1.5"></path><path d="M960.62 260.31L1142.78 188.9" stroke="hsl(228.5, 77.2%, 51.5%)" stroke-width="1.5"></path><path d="M960.62 260.31L1125.34 393.62" stroke="hsl(228.5, 77.2%, 51.5%)" stroke-width="1.5"></path><path d="M960.62 260.31L987.78 487.76" stroke="hsl(228.5, 77.2%, 51.5%)" stroke-width="1.5"></path><path d="M960.62 260.31L1238.22 246.47" stroke="hsl(228.5, 77.2%, 51.5%)" stroke-width="1.5"></path><path d="M987.78 487.76L987.78 487.76" stroke="hsl(228.5, 77.2%, 51.5%)" stroke-width="1.5"></path><path d="M987.78 487.76L1092.62 523.21" stroke="hsl(228.5, 77.2%, 51.5%)" stroke-width="1.5"></path><path d="M987.78 487.76L1125.34 393.62" stroke="hsl(228.5, 77.2%, 51.5%)" stroke-width="1.5"></path><path d="M987.78 487.76L995.78 683.76" stroke="hsl(228.5, 77.2%, 51.5%)" stroke-width="1.5"></path><path d="M995.78 683.76L995.78 683.76" stroke="hsl(228.5, 77.2%, 51.5%)" stroke-width="1.5"></path><path d="M995.78 683.76L1096.47 667.32" stroke="hsl(228.5, 77.2%, 51.5%)" stroke-width="1.5"></path><path d="M1142.78 188.9L1142.78 188.9" stroke="hsl(228.5, 77.2%, 51.5%)" stroke-width="1.5"></path><path d="M1142.78 188.9L1285.93 56.91" stroke="hsl(228.5, 77.2%, 51.5%)" stroke-width="1.5"></path><path d="M1125.34 393.62L1125.34 393.62" stroke="hsl(228.5, 77.2%, 51.5%)" stroke-width="1.5"></path><path d="M1125.34 393.62L1092.62 523.21" stroke="hsl(228.5, 77.2%, 51.5%)" stroke-width="1.5"></path><path d="M1125.34 393.62L1266.07 525.72" stroke="hsl(228.5, 77.2%, 51.5%)" stroke-width="1.5"></path><path d="M1092.62 523.21L1092.62 523.21" stroke="hsl(228.5, 77.2%, 51.5%)" stroke-width="1.5"></path><path d="M1092.62 523.21L1096.47 667.32" stroke="hsl(228.5, 77.2%, 51.5%)" stroke-width="1.5"></path><path d="M1092.62 523.21L995.78 683.76" stroke="hsl(228.5, 77.2%, 51.5%)" stroke-width="1.5"></path><path d="M1092.62 523.21L994.15 338.09" stroke="hsl(228.5, 77.2%, 51.5%)" stroke-width="1.5"></path><path d="M1096.47 667.32L1096.47 667.32" stroke="hsl(228.5, 77.2%, 51.5%)" stroke-width="1.5"></path><path d="M1290.35 -80.93L1290.35 -80.93" stroke="hsl(228.5, 77.2%, 51.5%)" stroke-width="1.5"></path><path d="M1290.35 -80.93L1285.93 56.91" stroke="hsl(228.5, 77.2%, 51.5%)" stroke-width="1.5"></path><path d="M1290.35 -80.93L1438.52 -108.66" stroke="hsl(228.5, 77.2%, 51.5%)" stroke-width="1.5"></path><path d="M1290.35 -80.93L1389.45 62.06" stroke="hsl(228.5, 77.2%, 51.5%)" stroke-width="1.5"></path><path d="M1290.35 -80.93L1562.43 -73.13" stroke="hsl(228.5, 77.2%, 51.5%)" stroke-width="1.5"></path><path d="M1285.93 56.91L1285.93 56.91" stroke="hsl(228.5, 77.2%, 51.5%)" stroke-width="1.5"></path><path d="M1285.93 56.91L1389.45 62.06" stroke="hsl(228.5, 77.2%, 51.5%)" stroke-width="1.5"></path><path d="M1285.93 56.91L1417.36 196.46" stroke="hsl(228.5, 77.2%, 51.5%)" stroke-width="1.5"></path><path d="M1280.68 673.25L1280.68 673.25" stroke="hsl(228.5, 77.2%, 51.5%)" stroke-width="1.5"></path><path d="M1280.68 673.25L1387.73 688.91" stroke="hsl(228.5, 77.2%, 51.5%)" stroke-width="1.5"></path><path d="M1280.68 673.25L1096.47 667.32" stroke="hsl(228.5, 77.2%, 51.5%)" stroke-width="1.5"></path><path d="M1280.68 673.25L1457.17 545.93" stroke="hsl(228.5, 77.2%, 51.5%)" stroke-width="1.5"></path><path d="M1280.68 673.25L1092.62 523.21" stroke="hsl(228.5, 77.2%, 51.5%)" stroke-width="1.5"></path><path d="M1438.52 -108.66L1438.52 -108.66" stroke="hsl(228.5, 77.2%, 51.5%)" stroke-width="1.5"></path><path d="M1438.52 -108.66L1562.43 -73.13" stroke="hsl(228.5, 77.2%, 51.5%)" stroke-width="1.5"></path><path d="M1389.45 62.06L1389.45 62.06" stroke="hsl(228.5, 77.2%, 51.5%)" stroke-width="1.5"></path><path d="M1389.45 62.06L1417.36 196.46" stroke="hsl(228.5, 77.2%, 51.5%)" stroke-width="1.5"></path><path d="M1389.45 62.06L1547.13 55.12" stroke="hsl(228.5, 77.2%, 51.5%)" stroke-width="1.5"></path><path d="M1389.45 62.06L1438.52 -108.66" stroke="hsl(228.5, 77.2%, 51.5%)" stroke-width="1.5"></path><path d="M1417.36 196.46L1417.36 196.46" stroke="hsl(228.5, 77.2%, 51.5%)" stroke-width="1.5"></path><path d="M1438.47 394.59L1438.47 394.59" stroke="hsl(228.5, 77.2%, 51.5%)" stroke-width="1.5"></path><path d="M1438.47 394.59L1553.58 380.02" stroke="hsl(228.5, 77.2%, 51.5%)" stroke-width="1.5"></path><path d="M1438.47 394.59L1457.17 545.93" stroke="hsl(228.5, 77.2%, 51.5%)" stroke-width="1.5"></path><path d="M1438.47 394.59L1417.36 196.46" stroke="hsl(228.5, 77.2%, 51.5%)" stroke-width="1.5"></path><path d="M1457.17 545.93L1457.17 545.93" stroke="hsl(228.5, 77.2%, 51.5%)" stroke-width="1.5"></path><path d="M1457.17 545.93L1387.73 688.91" stroke="hsl(228.5, 77.2%, 51.5%)" stroke-width="1.5"></path><path d="M1457.17 545.93L1605.12 651.15" stroke="hsl(228.5, 77.2%, 51.5%)" stroke-width="1.5"></path><path d="M1387.73 688.91L1387.73 688.91" stroke="hsl(228.5, 77.2%, 51.5%)" stroke-width="1.5"></path><path d="M1387.73 688.91L1266.07 525.72" stroke="hsl(228.5, 77.2%, 51.5%)" stroke-width="1.5"></path><path d="M1387.73 688.91L1605.12 651.15" stroke="hsl(228.5, 77.2%, 51.5%)" stroke-width="1.5"></path><path d="M1562.43 -73.13L1562.43 -73.13" stroke="hsl(228.5, 77.2%, 51.5%)" stroke-width="1.5"></path><path d="M1562.43 -73.13L1547.13 55.12" stroke="hsl(228.5, 77.2%, 51.5%)" stroke-width="1.5"></path><path d="M1547.13 55.12L1547.13 55.12" stroke="hsl(228.5, 77.2%, 51.5%)" stroke-width="1.5"></path><path d="M1547.13 55.12L1576.44 201.76" stroke="hsl(228.5, 77.2%, 51.5%)" stroke-width="1.5"></path><path d="M1547.13 55.12L1417.36 196.46" stroke="hsl(228.5, 77.2%, 51.5%)" stroke-width="1.5"></path><path d="M1576.44 201.76L1576.44 201.76" stroke="hsl(228.5, 77.2%, 51.5%)" stroke-width="1.5"></path><path d="M1576.44 201.76L1417.36 196.46" stroke="hsl(228.5, 77.2%, 51.5%)" stroke-width="1.5"></path><path d="M1576.44 201.76L1553.58 380.02" stroke="hsl(228.5, 77.2%, 51.5%)" stroke-width="1.5"></path><path d="M1576.44 201.76L1389.45 62.06" stroke="hsl(228.5, 77.2%, 51.5%)" stroke-width="1.5"></path><path d="M1576.44 201.76L1438.47 394.59" stroke="hsl(228.5, 77.2%, 51.5%)" stroke-width="1.5"></path><path d="M1576.44 201.76L1562.43 -73.13" stroke="hsl(228.5, 77.2%, 51.5%)" stroke-width="1.5"></path><path d="M1553.58 380.02L1553.58 380.02" stroke="hsl(228.5, 77.2%, 51.5%)" stroke-width="1.5"></path><path d="M1553.58 380.02L1457.17 545.93" stroke="hsl(228.5, 77.2%, 51.5%)" stroke-width="1.5"></path><path d="M1553.58 380.02L1417.36 196.46" stroke="hsl(228.5, 77.2%, 51.5%)" stroke-width="1.5"></path><path d="M1605.12 651.15L1605.12 651.15" stroke="hsl(228.5, 77.2%, 51.5%)" stroke-width="1.5"></path><circle r="25" cx="-104.79" cy="536.82" fill="url(#SvgjsRadialGradient1003)"></circle><circle r="25" cx="381.62" cy="546.64" fill="url(#SvgjsRadialGradient1003)"></circle><circle r="25" cx="551.28" cy="407.95" fill="url(#SvgjsRadialGradient1003)"></circle><circle r="25" cx="994.15" cy="338.09" fill="url(#SvgjsRadialGradient1003)"></circle><circle r="25" cx="1238.22" cy="246.47" fill="url(#SvgjsRadialGradient1003)"></circle><circle r="25" cx="1266.07" cy="525.72" fill="url(#SvgjsRadialGradient1003)"></circle><circle r="25" cx="1552.02" cy="534.29" fill="url(#SvgjsRadialGradient1003)"></circle><circle r="5" cx="-38.3" cy="704.06" fill="#8b9ad9"></circle><circle r="5" cx="52.7" cy="707.09" fill="#8b9ad9"></circle><circle r="5" cx="188.7" cy="527.27" fill="#8b9ad9"></circle><circle r="5" cx="227.93" cy="674.91" fill="#8b9ad9"></circle><circle r="5" cx="377.81" cy="697.24" fill="#8b9ad9"></circle><circle r="5" cx="548.49" cy="495.77" fill="#8b9ad9"></circle><circle r="5" cx="556.22" cy="648.95" fill="#8b9ad9"></circle><circle r="5" cx="712.31" cy="508.43" fill="#8b9ad9"></circle><circle r="5" cx="679.49" cy="641.83" fill="#8b9ad9"></circle><circle r="5" cx="827.62" cy="348.24" fill="#8b9ad9"></circle><circle r="5" cx="838.25" cy="516.78" fill="#8b9ad9"></circle><circle r="5" cx="802.22" cy="682" fill="#8b9ad9"></circle><circle r="5" cx="960.62" cy="260.31" fill="#8b9ad9"></circle><circle r="5" cx="987.78" cy="487.76" fill="#8b9ad9"></circle><circle r="5" cx="995.78" cy="683.76" fill="#8b9ad9"></circle><circle r="5" cx="1142.78" cy="188.9" fill="#8b9ad9"></circle><circle r="5" cx="1125.34" cy="393.62" fill="#8b9ad9"></circle><circle r="5" cx="1092.62" cy="523.21" fill="#8b9ad9"></circle><circle r="5" cx="1096.47" cy="667.32" fill="#8b9ad9"></circle><circle r="5" cx="1290.35" cy="-80.93" fill="#8b9ad9"></circle><circle r="5" cx="1285.93" cy="56.91" fill="#8b9ad9"></circle><circle r="5" cx="1280.68" cy="673.25" fill="#8b9ad9"></circle><circle r="5" cx="1438.52" cy="-108.66" fill="#8b9ad9"></circle><circle r="5" cx="1389.45" cy="62.06" fill="#8b9ad9"></circle><circle r="5" cx="1417.36" cy="196.46" fill="#8b9ad9"></circle><circle r="5" cx="1438.47" cy="394.59" fill="#8b9ad9"></circle><circle r="5" cx="1457.17" cy="545.93" fill="#8b9ad9"></circle><circle r="5" cx="1387.73" cy="688.91" fill="#8b9ad9"></circle><circle r="5" cx="1562.43" cy="-73.13" fill="#8b9ad9"></circle><circle r="5" cx="1547.13" cy="55.12" fill="#8b9ad9"></circle><circle r="5" cx="1576.44" cy="201.76" fill="#8b9ad9"></circle><circle r="5" cx="1553.58" cy="380.02" fill="#8b9ad9"></circle><circle r="5" cx="1605.12" cy="651.15" fill="#8b9ad9"></circle></g><defs><mask id="SvgjsMask1002"><rect width="1440" height="560" fill="#ffffff"></rect></mask><radialGradient id="SvgjsRadialGradient1003"><stop stop-color="#ffffff" offset="0.1"></stop><stop stop-color="#1735b3" offset="0.2"></stop><stop stop-color="rgba(23, 53, 179, 0)" offset="1"></stop></radialGradient></defs></svg>