<svg xmlns="http://www.w3.org/2000/svg" version="1.1" xmlns:xlink="http://www.w3.org/1999/xlink" xmlns:svgjs="http://svgjs.com/svgjs" width="1440" height="560" preserveAspectRatio="none" viewBox="0 0 1440 560"><g mask="url(&quot;#SvgjsMask1004&quot;)" fill="none"><rect width="1440" height="560" x="0" y="0" fill="rgba(255, 251, 227, 1)"></rect><path d="M591.27 -2.85L656.22 34.65L656.22 109.65L591.27 147.15L526.32 109.65L526.32 34.65zM786.13 334.65L851.09 372.15L851.09 447.15L786.13 484.65L721.18 447.15L721.18 372.15zM916.04 559.65L980.99 597.15L980.99 672.15L916.04 709.65L851.08 672.15L851.08 597.15zM980.99 222.15L1045.95 259.65L1045.95 334.65L980.99 372.15L916.04 334.65L916.04 259.65zM1175.85 109.65L1240.81 147.15L1240.81 222.15L1175.85 259.65L1110.9 222.15L1110.9 147.15zM1110.9 447.15L1175.85 484.65L1175.85 559.65L1110.9 597.15L1045.95 559.65L1045.95 484.65zM1305.76 559.65L1370.71 597.15L1370.71 672.15L1305.76 709.65L1240.81 672.15L1240.81 597.15zM1370.72 447.15L1435.67 484.65L1435.67 559.65L1370.72 597.15L1305.76 559.65L1305.76 484.65zM1500.62 -2.85L1565.58 34.65L1565.58 109.65L1500.62 147.15L1435.67 109.65L1435.67 34.65zM1500.62 222.15L1565.58 259.65L1565.58 334.65L1500.62 372.15L1435.67 334.65L1435.67 259.65z" stroke="rgba(255, 245, 174, 1)" stroke-width="2"></path><path d="M583.77 -2.85 a7.5 7.5 0 1 0 15 0 a7.5 7.5 0 1 0 -15 0zM648.72 34.65 a7.5 7.5 0 1 0 15 0 a7.5 7.5 0 1 0 -15 0zM648.72 109.65 a7.5 7.5 0 1 0 15 0 a7.5 7.5 0 1 0 -15 0zM583.77 147.15 a7.5 7.5 0 1 0 15 0 a7.5 7.5 0 1 0 -15 0zM518.82 109.65 a7.5 7.5 0 1 0 15 0 a7.5 7.5 0 1 0 -15 0zM518.82 34.65 a7.5 7.5 0 1 0 15 0 a7.5 7.5 0 1 0 -15 0zM778.63 334.65 a7.5 7.5 0 1 0 15 0 a7.5 7.5 0 1 0 -15 0zM843.59 372.15 a7.5 7.5 0 1 0 15 0 a7.5 7.5 0 1 0 -15 0zM843.59 447.15 a7.5 7.5 0 1 0 15 0 a7.5 7.5 0 1 0 -15 0zM778.63 484.65 a7.5 7.5 0 1 0 15 0 a7.5 7.5 0 1 0 -15 0zM713.68 447.15 a7.5 7.5 0 1 0 15 0 a7.5 7.5 0 1 0 -15 0zM713.68 372.15 a7.5 7.5 0 1 0 15 0 a7.5 7.5 0 1 0 -15 0zM908.54 559.65 a7.5 7.5 0 1 0 15 0 a7.5 7.5 0 1 0 -15 0zM973.49 597.15 a7.5 7.5 0 1 0 15 0 a7.5 7.5 0 1 0 -15 0zM973.49 672.15 a7.5 7.5 0 1 0 15 0 a7.5 7.5 0 1 0 -15 0zM908.54 709.65 a7.5 7.5 0 1 0 15 0 a7.5 7.5 0 1 0 -15 0zM843.58 672.15 a7.5 7.5 0 1 0 15 0 a7.5 7.5 0 1 0 -15 0zM843.58 597.15 a7.5 7.5 0 1 0 15 0 a7.5 7.5 0 1 0 -15 0zM973.49 222.15 a7.5 7.5 0 1 0 15 0 a7.5 7.5 0 1 0 -15 0zM1038.45 259.65 a7.5 7.5 0 1 0 15 0 a7.5 7.5 0 1 0 -15 0zM1038.45 334.65 a7.5 7.5 0 1 0 15 0 a7.5 7.5 0 1 0 -15 0zM973.49 372.15 a7.5 7.5 0 1 0 15 0 a7.5 7.5 0 1 0 -15 0zM908.54 334.65 a7.5 7.5 0 1 0 15 0 a7.5 7.5 0 1 0 -15 0zM908.54 259.65 a7.5 7.5 0 1 0 15 0 a7.5 7.5 0 1 0 -15 0zM1168.35 109.65 a7.5 7.5 0 1 0 15 0 a7.5 7.5 0 1 0 -15 0zM1233.31 147.15 a7.5 7.5 0 1 0 15 0 a7.5 7.5 0 1 0 -15 0zM1233.31 222.15 a7.5 7.5 0 1 0 15 0 a7.5 7.5 0 1 0 -15 0zM1168.35 259.65 a7.5 7.5 0 1 0 15 0 a7.5 7.5 0 1 0 -15 0zM1103.4 222.15 a7.5 7.5 0 1 0 15 0 a7.5 7.5 0 1 0 -15 0zM1103.4 147.15 a7.5 7.5 0 1 0 15 0 a7.5 7.5 0 1 0 -15 0zM1103.4 447.15 a7.5 7.5 0 1 0 15 0 a7.5 7.5 0 1 0 -15 0zM1168.35 484.65 a7.5 7.5 0 1 0 15 0 a7.5 7.5 0 1 0 -15 0zM1168.35 559.65 a7.5 7.5 0 1 0 15 0 a7.5 7.5 0 1 0 -15 0zM1103.4 597.15 a7.5 7.5 0 1 0 15 0 a7.5 7.5 0 1 0 -15 0zM1038.45 559.65 a7.5 7.5 0 1 0 15 0 a7.5 7.5 0 1 0 -15 0zM1038.45 484.65 a7.5 7.5 0 1 0 15 0 a7.5 7.5 0 1 0 -15 0zM1298.26 559.65 a7.5 7.5 0 1 0 15 0 a7.5 7.5 0 1 0 -15 0zM1363.21 597.15 a7.5 7.5 0 1 0 15 0 a7.5 7.5 0 1 0 -15 0zM1363.21 672.15 a7.5 7.5 0 1 0 15 0 a7.5 7.5 0 1 0 -15 0zM1298.26 709.65 a7.5 7.5 0 1 0 15 0 a7.5 7.5 0 1 0 -15 0zM1233.31 672.15 a7.5 7.5 0 1 0 15 0 a7.5 7.5 0 1 0 -15 0zM1233.31 597.15 a7.5 7.5 0 1 0 15 0 a7.5 7.5 0 1 0 -15 0zM1363.22 447.15 a7.5 7.5 0 1 0 15 0 a7.5 7.5 0 1 0 -15 0zM1428.17 484.65 a7.5 7.5 0 1 0 15 0 a7.5 7.5 0 1 0 -15 0zM1428.17 559.65 a7.5 7.5 0 1 0 15 0 a7.5 7.5 0 1 0 -15 0zM1363.22 597.15 a7.5 7.5 0 1 0 15 0 a7.5 7.5 0 1 0 -15 0zM1298.26 484.65 a7.5 7.5 0 1 0 15 0 a7.5 7.5 0 1 0 -15 0zM1493.12 -2.85 a7.5 7.5 0 1 0 15 0 a7.5 7.5 0 1 0 -15 0zM1558.08 34.65 a7.5 7.5 0 1 0 15 0 a7.5 7.5 0 1 0 -15 0zM1558.08 109.65 a7.5 7.5 0 1 0 15 0 a7.5 7.5 0 1 0 -15 0zM1493.12 147.15 a7.5 7.5 0 1 0 15 0 a7.5 7.5 0 1 0 -15 0zM1428.17 109.65 a7.5 7.5 0 1 0 15 0 a7.5 7.5 0 1 0 -15 0zM1428.17 34.65 a7.5 7.5 0 1 0 15 0 a7.5 7.5 0 1 0 -15 0zM1493.12 222.15 a7.5 7.5 0 1 0 15 0 a7.5 7.5 0 1 0 -15 0zM1558.08 259.65 a7.5 7.5 0 1 0 15 0 a7.5 7.5 0 1 0 -15 0zM1558.08 334.65 a7.5 7.5 0 1 0 15 0 a7.5 7.5 0 1 0 -15 0zM1493.12 372.15 a7.5 7.5 0 1 0 15 0 a7.5 7.5 0 1 0 -15 0zM1428.17 334.65 a7.5 7.5 0 1 0 15 0 a7.5 7.5 0 1 0 -15 0zM1428.17 259.65 a7.5 7.5 0 1 0 15 0 a7.5 7.5 0 1 0 -15 0z" fill="rgba(255, 245, 174, 1)"></path><path d="M79.12 372.64L122.43 397.64L122.43 447.64L79.12 472.64L35.82 447.64L35.82 397.64zM79.12 522.64L122.43 547.64L122.43 597.64L79.12 622.64L35.82 597.64L35.82 547.64zM122.43 147.64L165.73 172.64L165.73 222.64L122.43 247.64L79.12 222.64L79.12 172.64zM252.33 372.64L295.63 397.64L295.63 447.64L252.33 472.64L209.03 447.64L209.03 397.64zM295.63 -2.36L338.94 22.64L338.94 72.64L295.63 97.64L252.33 72.64L252.33 22.64zM512.15 222.64L555.45 247.64L555.45 297.64L512.15 322.64L468.85 297.64L468.85 247.64zM512.15 372.64L555.45 397.64L555.45 447.64L512.15 472.64L468.85 447.64L468.85 397.64zM598.75 372.64L642.06 397.64L642.06 447.64L598.75 472.64L555.45 447.64L555.45 397.64zM685.36 222.64L728.66 247.64L728.66 297.64L685.36 322.64L642.06 297.64L642.06 247.64zM642.06 297.64L685.36 322.64L685.36 372.64L642.06 397.64L598.75 372.64L598.75 322.64zM685.36 372.64L728.66 397.64L728.66 447.64L685.36 472.64L642.06 447.64L642.06 397.64zM728.66 297.64L771.96 322.64L771.96 372.64L728.66 397.64L685.36 372.64L685.36 322.64zM771.96 522.64L815.27 547.64L815.27 597.64L771.96 622.64L728.66 597.64L728.66 547.64zM815.27 447.64L858.57 472.64L858.57 522.64L815.27 547.64L771.96 522.64L771.96 472.64zM901.87 -2.36L945.17 22.64L945.17 72.64L901.87 97.64L858.57 72.64L858.57 22.64zM945.17 222.64L988.48 247.64L988.48 297.64L945.17 322.64L901.87 297.64L901.87 247.64zM988.48 -2.36L1031.78 22.64L1031.78 72.64L988.48 97.64L945.17 72.64L945.17 22.64zM1161.68 147.64L1204.99 172.64L1204.99 222.64L1161.68 247.64L1118.38 222.64L1118.38 172.64zM1248.29 147.64L1291.59 172.64L1291.59 222.64L1248.29 247.64L1204.99 222.64L1204.99 172.64zM1291.59 222.64L1334.89 247.64L1334.89 297.64L1291.59 322.64L1248.29 297.64L1248.29 247.64zM1378.2 72.64L1421.5 97.64L1421.5 147.64L1378.2 172.64L1334.89 147.64L1334.89 97.64z" stroke="rgba(255, 231, 157, 0.93)" stroke-width="2"></path></g><defs><mask id="SvgjsMask1004"><rect width="1440" height="560" fill="#ffffff"></rect></mask></defs></svg>